<svg width="112" height="112" viewBox="0 0 112 112" fill="none" xmlns="http://www.w3.org/2000/svg">
<path d="M87.261 56.3094C87.261 73.3984 73.1444 87.2518 55.7306 87.2518C38.3168 87.2518 24.2002 73.3984 24.2002 56.3094C24.2002 39.2203 38.3168 25.3669 55.7306 25.3669C73.1444 25.3669 87.261 39.2203 87.261 56.3094Z" fill="#D79847"/>
<path d="M110.5 56C110.5 54.5603 110.444 53.1334 110.334 51.7214L108.839 51.8376C108.621 49.0321 108.185 46.2879 107.547 43.622L109.006 43.273C108.335 40.4709 107.448 37.7529 106.364 35.1377L104.978 35.7122C103.909 33.134 102.642 30.6584 101.197 28.3043L102.475 27.5194C100.977 25.0806 99.2933 22.7689 97.4426 20.6042L96.3025 21.5789C94.4984 19.4685 92.5315 17.5016 90.4211 15.6975L91.3958 14.5573C89.2311 12.7067 86.9194 11.0226 84.4806 9.52501L83.6957 10.8032C81.3416 9.35766 78.866 8.09084 76.2878 7.02167L76.8623 5.63608C74.2471 4.55158 71.5291 3.66478 68.727 2.99438L68.3779 4.4532C65.712 3.81538 62.9679 3.379 60.1624 3.16105L60.2786 1.66555C58.8665 1.55585 57.4396 1.5 56 1.5C54.5603 1.5 53.1334 1.55585 51.7214 1.66555L51.8376 3.16105C49.0321 3.379 46.2879 3.81538 43.622 4.4532L43.273 2.99438C40.4709 3.66478 37.7529 4.55158 35.1377 5.63608L35.7122 7.02167C33.134 8.09084 30.6584 9.35766 28.3043 10.8032L27.5194 9.52502C25.0806 11.0226 22.7689 12.7067 20.6042 14.5573L21.5789 15.6975C19.4685 17.5016 17.5016 19.4685 15.6975 21.5789L14.5573 20.6042C12.7067 22.7689 11.0226 25.0806 9.52501 27.5194L10.8032 28.3043C9.35766 30.6584 8.09084 33.134 7.02167 35.7122L5.63608 35.1377C4.55158 37.7529 3.66478 40.4709 2.99438 43.273L4.4532 43.6221C3.81538 46.288 3.379 49.0321 3.16105 51.8376L1.66555 51.7214C1.55585 53.1335 1.5 54.5604 1.5 56C1.5 57.4397 1.55585 58.8666 1.66555 60.2786L3.16105 60.1624C3.379 62.9679 3.81538 65.7121 4.4532 68.378L2.99438 68.727C3.66478 71.5291 4.55158 74.2471 5.63608 76.8623L7.02167 76.2878C8.09084 78.866 9.35767 81.3416 10.8032 83.6957L9.52502 84.4806C11.0226 86.9194 12.7067 89.2311 14.5573 91.3958L15.6975 90.4211C17.5016 92.5315 19.4685 94.4984 21.5789 96.3025L20.6042 97.4427C22.7689 99.2933 25.0806 100.977 27.5194 102.475L28.3043 101.197C30.6584 102.642 33.134 103.909 35.7122 104.978L35.1377 106.364C37.7529 107.448 40.4709 108.335 43.273 109.006L43.6221 107.547C46.288 108.185 49.0321 108.621 51.8376 108.839L51.7214 110.334C53.1335 110.444 54.5604 110.5 56 110.5C57.4397 110.5 58.8666 110.444 60.2786 110.334L60.1624 108.839C62.9679 108.621 65.7121 108.185 68.378 107.547L68.727 109.006C71.5291 108.335 74.2471 107.448 76.8623 106.364L76.2878 104.978C78.866 103.909 81.3416 102.642 83.6957 101.197L84.4806 102.475C86.9194 100.977 89.2311 99.2933 91.3958 97.4426L90.4211 96.3025C92.5315 94.4984 94.4984 92.5315 96.3025 90.4211L97.4427 91.3958C99.2933 89.2311 100.977 86.9194 102.475 84.4806L101.197 83.6957C102.642 81.3416 103.909 78.866 104.978 76.2878L106.364 76.8623C107.448 74.2471 108.335 71.5291 109.006 68.727L107.547 68.378C108.185 65.7121 108.621 62.9679 108.839 60.1624L110.334 60.2786C110.444 58.8665 110.5 57.4396 110.5 56Z" stroke="#D79847" stroke-width="3" stroke-dasharray="8 8"/>
<path d="M70.5437 69.0312L64.9493 63.4085C63.7459 62.286 62.228 61.5422 60.5906 61.2728C58.9532 61.0034 57.271 61.2207 55.7604 61.8968L53.3281 59.5098C56.1944 55.7514 57.5034 51.0669 56.9916 46.3995C56.4798 41.732 54.1853 37.4281 50.5699 34.3541C46.9545 31.2801 42.2867 29.6644 37.5061 29.8321C32.7256 29.9997 28.1872 31.9385 24.8047 35.2579C21.4222 38.5774 19.4466 43.0311 19.2758 47.7225C19.1049 52.4139 20.7514 56.9947 23.8837 60.5426C27.0161 64.0906 31.4018 66.3424 36.158 66.8446C40.9142 67.3468 45.6876 66.0622 49.5174 63.2494L51.9227 65.6099C51.1527 67.0941 50.8768 68.7781 51.1338 70.4245C51.3907 72.0708 52.1677 73.5965 53.3551 74.7865L59.0846 80.4092C60.6049 81.8992 62.6656 82.7361 64.8142 82.7361C66.9627 82.7361 69.0235 81.8992 70.5437 80.4092C71.3159 79.6682 71.9295 78.7832 72.3484 77.8063C72.7673 76.8294 72.9831 75.7801 72.9831 74.7202C72.9831 73.6603 72.7673 72.6111 72.3484 71.6341C71.9295 70.6572 71.3159 69.7722 70.5437 69.0312ZM47.6256 57.7859C45.7344 59.6371 43.3266 60.8968 40.7062 61.4057C38.0859 61.9147 35.3706 61.6501 32.9034 60.6454C30.4362 59.6408 28.3278 57.941 26.8445 55.761C25.3612 53.5809 24.5695 51.0184 24.5695 48.397C24.5695 45.7757 25.3612 43.2131 26.8445 41.0331C28.3278 38.853 30.4362 37.1533 32.9034 36.1486C35.3706 35.1439 38.0859 34.8794 40.7062 35.3883C43.3266 35.8973 45.7344 37.157 47.6256 39.0082C48.884 40.24 49.8824 41.7034 50.5637 43.3145C51.2449 44.9256 51.5956 46.6527 51.5956 48.397C51.5956 50.1413 51.2449 51.8685 50.5637 53.4796C49.8824 55.0906 48.884 56.554 47.6256 57.7859ZM66.733 76.537C66.4818 76.7856 66.1829 76.9829 65.8535 77.1175C65.5242 77.2522 65.1709 77.3215 64.8142 77.3215C64.4574 77.3215 64.1041 77.2522 63.7748 77.1175C63.4455 76.9829 63.1466 76.7856 62.8953 76.537L57.1658 70.9143C56.9125 70.6677 56.7114 70.3744 56.5742 70.0512C56.437 69.728 56.3664 69.3813 56.3664 69.0312C56.3664 68.6811 56.437 68.3344 56.5742 68.0112C56.7114 67.688 56.9125 67.3947 57.1658 67.1482C57.417 66.8996 57.7159 66.7023 58.0453 66.5676C58.3746 66.433 58.7279 66.3636 59.0846 66.3636C59.4414 66.3636 59.7947 66.433 60.124 66.5676C60.4533 66.7023 60.7523 66.8996 61.0035 67.1482L66.733 72.7708C66.9863 73.0174 67.1874 73.3107 67.3246 73.6339C67.4618 73.9571 67.5324 74.3038 67.5324 74.6539C67.5324 75.004 67.4618 75.3507 67.3246 75.6739C67.1874 75.9971 66.9863 76.2904 66.733 76.537Z" fill="#3F3E3E"/>
</svg>
