<svg width="74" height="64" viewBox="0 0 74 64" fill="none" xmlns="http://www.w3.org/2000/svg">
<path opacity="0.5" d="M74 32C74 49.6731 59.6731 64 42 64C24.3269 64 10 49.6731 10 32C10 14.3269 24.3269 0 42 0C59.6731 0 74 14.3269 74 32Z" fill="#D79847"/>
<path d="M51.28 45.211L45.6856 39.5884C44.4823 38.4658 42.9643 37.722 41.3269 37.4526C39.6895 37.1833 38.0074 37.4005 36.4968 38.0766L34.0644 35.6896C36.9307 31.9312 38.2397 27.2468 37.7279 22.5793C37.2161 17.9118 34.9216 13.6079 31.3062 10.5339C27.6908 7.45994 23.023 5.84417 18.2425 6.01186C13.4619 6.17955 8.92356 8.11826 5.54103 11.4377C2.15851 14.7572 0.182964 19.2109 0.012085 23.9023C-0.158794 28.5937 1.48768 33.1745 4.62007 36.7225C7.75246 40.2704 12.1382 42.5222 16.8943 43.0244C21.6505 43.5266 26.4239 42.242 30.2537 39.4292L32.6591 41.7897C31.8891 43.274 31.6131 44.9579 31.8701 46.6043C32.1271 48.2506 32.904 49.7763 34.0914 50.9663L39.821 56.589C41.3412 58.079 43.4019 58.916 45.5505 58.916C47.6991 58.916 49.7598 58.079 51.28 56.589C52.0523 55.848 52.6658 54.963 53.0848 53.9861C53.5037 53.0092 53.7195 51.9599 53.7195 50.9C53.7195 49.8401 53.5037 48.7909 53.0848 47.8139C52.6658 46.837 52.0523 45.952 51.28 45.211V45.211ZM28.3619 33.9657C26.4707 35.8169 24.0629 37.0766 21.4425 37.5855C18.8222 38.0945 16.1069 37.8299 13.6398 36.8252C11.1726 35.8206 9.06413 34.1208 7.58081 31.9408C6.09749 29.7608 5.30582 27.1982 5.30582 24.5768C5.30582 21.9555 6.09749 19.3929 7.58081 17.2129C9.06413 15.0328 11.1726 13.3331 13.6398 12.3284C16.1069 11.3238 18.8222 11.0592 21.4425 11.5682C24.0629 12.0771 26.4707 13.3368 28.3619 15.188C29.6203 16.4199 30.6188 17.8832 31.3 19.4943C31.9812 21.1054 32.3319 22.8326 32.3319 24.5768C32.3319 26.3211 31.9812 28.0483 31.3 29.6594C30.6188 31.2705 29.6203 32.7338 28.3619 33.9657V33.9657ZM47.4693 52.7168C47.2181 52.9654 46.9192 53.1627 46.5898 53.2973C46.2605 53.432 45.9073 53.5013 45.5505 53.5013C45.1937 53.5013 44.8405 53.432 44.5111 53.2973C44.1818 53.1627 43.8829 52.9654 43.6316 52.7168L37.9021 47.0941C37.6488 46.8475 37.4478 46.5542 37.3105 46.231C37.1733 45.9078 37.1027 45.5612 37.1027 45.211C37.1027 44.8609 37.1733 44.5143 37.3105 44.1911C37.4478 43.8679 37.6488 43.5745 37.9021 43.328C38.1534 43.0794 38.4523 42.8821 38.7816 42.7474C39.1109 42.6128 39.4642 42.5434 39.821 42.5434C40.1777 42.5434 40.531 42.6128 40.8603 42.7474C41.1897 42.8821 41.4886 43.0794 41.7398 43.328L47.4693 48.9506C47.7227 49.1972 47.9237 49.4905 48.0609 49.8137C48.1981 50.1369 48.2688 50.4836 48.2688 50.8337C48.2688 51.1838 48.1981 51.5305 48.0609 51.8537C47.9237 52.1769 47.7227 52.4702 47.4693 52.7168V52.7168Z" fill="#3F3E3E"/>
</svg>
