<svg width="110" height="110" viewBox="0 0 110 110" fill="none" xmlns="http://www.w3.org/2000/svg">
<path d="M87 55C87 72.6731 72.6731 87 55 87C37.3269 87 23 72.6731 23 55C23 37.3269 37.3269 23 55 23C72.6731 23 87 37.3269 87 55Z" fill="#D79847"/>
<path d="M64.28 68.211L58.6856 62.5884C57.4823 61.4658 55.9643 60.722 54.3269 60.4526C52.6895 60.1833 51.0074 60.4005 49.4968 61.0766L47.0644 58.6896C49.9307 54.9312 51.2397 50.2468 50.7279 45.5793C50.2161 40.9118 47.9216 36.6079 44.3062 33.5339C40.6908 30.4599 36.023 28.8442 31.2425 29.0119C26.4619 29.1796 21.9236 31.1183 18.541 34.4377C15.1585 37.7572 13.183 42.2109 13.0121 46.9023C12.8412 51.5937 14.4877 56.1745 17.6201 59.7225C20.7525 63.2704 25.1382 65.5222 29.8943 66.0244C34.6505 66.5266 39.4239 65.242 43.2537 62.4292L45.6591 64.7897C44.8891 66.274 44.6131 67.9579 44.8701 69.6043C45.1271 71.2506 45.904 72.7763 47.0914 73.9663L52.821 79.589C54.3412 81.079 56.4019 81.916 58.5505 81.916C60.6991 81.916 62.7598 81.079 64.28 79.589C65.0523 78.848 65.6658 77.963 66.0848 76.9861C66.5037 76.0092 66.7195 74.9599 66.7195 73.9C66.7195 72.8401 66.5037 71.7909 66.0848 70.8139C65.6658 69.837 65.0523 68.952 64.28 68.211V68.211ZM41.3619 56.9657C39.4707 58.8169 37.0629 60.0766 34.4425 60.5855C31.8222 61.0945 29.1069 60.8299 26.6398 59.8252C24.1726 58.8206 22.0641 57.1208 20.5808 54.9408C19.0975 52.7608 18.3058 50.1982 18.3058 47.5768C18.3058 44.9555 19.0975 42.3929 20.5808 40.2129C22.0641 38.0328 24.1726 36.3331 26.6398 35.3284C29.1069 34.3238 31.8222 34.0592 34.4425 34.5682C37.0629 35.0771 39.4707 36.3368 41.3619 38.188C42.6203 39.4199 43.6188 40.8832 44.3 42.4943C44.9812 44.1054 45.3319 45.8326 45.3319 47.5768C45.3319 49.3211 44.9812 51.0483 44.3 52.6594C43.6188 54.2705 42.6203 55.7338 41.3619 56.9657V56.9657ZM60.4693 75.7168C60.2181 75.9654 59.9192 76.1627 59.5898 76.2973C59.2605 76.432 58.9073 76.5013 58.5505 76.5013C58.1937 76.5013 57.8405 76.432 57.5111 76.2973C57.1818 76.1627 56.8829 75.9654 56.6316 75.7168L50.9021 70.0941C50.6488 69.8475 50.4478 69.5542 50.3105 69.231C50.1733 68.9078 50.1027 68.5612 50.1027 68.211C50.1027 67.8609 50.1733 67.5143 50.3105 67.1911C50.4478 66.8679 50.6488 66.5745 50.9021 66.328C51.1534 66.0794 51.4523 65.8821 51.7816 65.7474C52.1109 65.6128 52.4642 65.5434 52.821 65.5434C53.1777 65.5434 53.531 65.6128 53.8603 65.7474C54.1897 65.8821 54.4886 66.0794 54.7398 66.328L60.4693 71.9506C60.7227 72.1972 60.9237 72.4905 61.0609 72.8137C61.1981 73.1369 61.2688 73.4836 61.2688 73.8337C61.2688 74.1838 61.1981 74.5305 61.0609 74.8537C60.9237 75.1769 60.7227 75.4702 60.4693 75.7168V75.7168Z" fill="#3F3E3E"/>
<path d="M108.5 55C108.5 53.5868 108.445 52.1861 108.337 50.7999L106.842 50.9161C106.628 48.1636 106.2 45.4712 105.574 42.8556L107.033 42.5066C106.375 39.7559 105.504 37.0877 104.44 34.5205L103.054 35.095C102.005 32.5654 100.762 30.1365 99.344 27.8269L100.622 27.042C99.1521 24.6479 97.4989 22.3787 95.6822 20.2536L94.5421 21.2283C92.772 19.1578 90.8422 17.228 88.7717 15.4579L89.7464 14.3178C87.6213 12.5011 85.3521 10.8479 82.958 9.37779L82.1731 10.656C79.8635 9.23771 77.4346 7.99479 74.905 6.94579L75.4796 5.5602C72.9123 4.4956 70.2441 3.62507 67.4934 2.96696L67.1444 4.42579C64.5288 3.79999 61.8364 3.37185 59.0839 3.15801L59.2001 1.66252C57.8139 1.55483 56.4132 1.5 55 1.5C53.5868 1.5 52.1861 1.55483 50.7999 1.66252L50.9161 3.15801C48.1636 3.37185 45.4712 3.79999 42.8556 4.42579L42.5066 2.96696C39.7559 3.62507 37.0877 4.4956 34.5205 5.5602L35.095 6.94579C32.5654 7.99478 30.1365 9.23771 27.8269 10.656L27.042 9.37778C24.6479 10.8479 22.3787 12.5011 20.2536 14.3178L21.2283 15.4579C19.1578 17.228 17.228 19.1578 15.4579 21.2283L14.3178 20.2536C12.5011 22.3787 10.8479 24.6479 9.37779 27.042L10.656 27.8269C9.23771 30.1365 7.99479 32.5654 6.94579 35.095L5.5602 34.5204C4.4956 37.0877 3.62507 39.7559 2.96696 42.5066L4.42579 42.8556C3.79999 45.4712 3.37185 48.1636 3.15801 50.9161L1.66252 50.7999C1.55483 52.1861 1.5 53.5868 1.5 55C1.5 56.4132 1.55483 57.8139 1.66252 59.2001L3.15801 59.0839C3.37185 61.8364 3.79999 64.5288 4.42579 67.1444L2.96696 67.4934C3.62507 70.2441 4.4956 72.9123 5.5602 75.4796L6.94579 74.905C7.99479 77.4346 9.23771 79.8635 10.656 82.1731L9.37778 82.958C10.8479 85.3521 12.5011 87.6213 14.3178 89.7464L15.4579 88.7717C17.228 90.8422 19.1578 92.772 21.2283 94.5421L20.2536 95.6822C22.3787 97.4989 24.6479 99.1521 27.042 100.622L27.8269 99.344C30.1365 100.762 32.5654 102.005 35.095 103.054L34.5204 104.44C37.0877 105.504 39.7559 106.375 42.5066 107.033L42.8556 105.574C45.4712 106.2 48.1636 106.628 50.9161 106.842L50.7999 108.337C52.1861 108.445 53.5868 108.5 55 108.5C56.4132 108.5 57.8139 108.445 59.2001 108.337L59.0839 106.842C61.8364 106.628 64.5288 106.2 67.1444 105.574L67.4934 107.033C70.2441 106.375 72.9123 105.504 75.4795 104.44L74.905 103.054C77.4346 102.005 79.8635 100.762 82.1731 99.344L82.958 100.622C85.3521 99.1521 87.6213 97.4989 89.7464 95.6822L88.7717 94.5421C90.8422 92.772 92.772 90.8422 94.5421 88.7717L95.6822 89.7464C97.4989 87.6213 99.1521 85.3521 100.622 82.9581L99.344 82.1731C100.762 79.8635 102.005 77.4346 103.054 74.905L104.44 75.4796C105.504 72.9123 106.375 70.2441 107.033 67.4934L105.574 67.1444C106.2 64.5288 106.628 61.8364 106.842 59.0839L108.337 59.2001C108.445 57.8139 108.5 56.4132 108.5 55Z" stroke="#D79847" stroke-width="3" stroke-dasharray="8 8"/>
</svg>
