<svg width="69" height="66" viewBox="0 0 69 66" fill="none" xmlns="http://www.w3.org/2000/svg">
<path opacity="0.5" d="M68.751 32.8182C68.751 50.3909 54.1017 64.6364 36.0308 64.6364C17.9599 64.6364 3.31055 50.3909 3.31055 32.8182C3.31055 15.2455 17.9599 1 36.0308 1C54.1017 1 68.751 15.2455 68.751 32.8182Z" fill="#D79847"/>
<path d="M53.2874 21.8182H50.4828V13.6364C50.4828 11.4665 49.5964 9.38538 48.0185 7.85099C46.4406 6.3166 44.3005 5.45459 42.0691 5.45459H14.0231C11.7917 5.45459 9.6516 6.3166 8.07371 7.85099C6.49582 9.38538 5.60938 11.4665 5.60938 13.6364V46.3637C5.61214 46.9021 5.77874 47.4277 6.08818 47.8742C6.39762 48.3207 6.83605 48.6682 7.34822 48.8728C7.68107 49.0254 8.04607 49.1002 8.41397 49.091C8.78307 49.093 9.14896 49.0242 9.49067 48.8885C9.83237 48.7528 10.1432 48.5528 10.4052 48.3L18.2861 40.6091H22.4369V44.5364C22.4369 46.7064 23.3234 48.7874 24.9013 50.3218C26.4791 51.8562 28.6192 52.7182 30.8507 52.7182H50.2585L56.9053 59.2091C57.1674 59.4619 57.4782 59.6619 57.8199 59.7976C58.1616 59.9333 58.5275 60.0021 58.8966 60C59.2645 60.0093 59.6295 59.9345 59.9623 59.7819C60.4745 59.5773 60.9129 59.2298 61.2224 58.7833C61.5318 58.3368 61.6984 57.8112 61.7012 57.2728V30C61.7012 27.8301 60.8147 25.749 59.2369 24.2146C57.659 22.6802 55.5189 21.8182 53.2874 21.8182ZM22.4369 30V35.1546H17.1362C16.7671 35.1525 16.4012 35.2213 16.0595 35.357C15.7178 35.4928 15.407 35.6927 15.145 35.9455L11.2186 39.791V13.6364C11.2186 12.9131 11.514 12.2194 12.04 11.7079C12.566 11.1965 13.2793 10.9091 14.0231 10.9091H42.0691C42.8129 10.9091 43.5262 11.1965 44.0522 11.7079C44.5782 12.2194 44.8736 12.9131 44.8736 13.6364V21.8182H30.8507C28.6192 21.8182 26.4791 22.6802 24.9013 24.2146C23.3234 25.749 22.4369 27.8301 22.4369 30ZM56.092 50.7L53.2874 47.9728C53.0277 47.7151 52.7179 47.5101 52.3761 47.3696C52.0343 47.2292 51.6672 47.1561 51.2962 47.1546H30.8507C30.1069 47.1546 29.3935 46.8673 28.8675 46.3558C28.3416 45.8443 28.0461 45.1506 28.0461 44.4273V30C28.0461 29.2767 28.3416 28.583 28.8675 28.0716C29.3935 27.5601 30.1069 27.2728 30.8507 27.2728H53.2874C54.0312 27.2728 54.7446 27.5601 55.2706 28.0716C55.7965 28.583 56.092 29.2767 56.092 30V50.7Z" fill="#3F3E3E"/>
</svg>
