<svg width="75" height="64" viewBox="0 0 75 64" fill="none" xmlns="http://www.w3.org/2000/svg">
<path opacity="0.5" d="M75 32C75 49.6731 60.6731 64 43 64C25.3269 64 11 49.6731 11 32C11 14.3269 25.3269 0 43 0C60.6731 0 75 14.3269 75 32Z" fill="#D79847"/>
<path d="M47.678 21.3636H44.8735V13.1818C44.8735 11.0119 43.987 8.93079 42.4091 7.3964C40.8312 5.86201 38.6911 5 36.4597 5H8.41377C6.1823 5 4.04223 5.86201 2.46434 7.3964C0.886449 8.93079 0 11.0119 0 13.1818V45.9091C0.00276387 46.4475 0.169363 46.9731 0.478803 47.4196C0.788242 47.8661 1.22667 48.2136 1.73885 48.4182C2.07169 48.5709 2.43669 48.6456 2.80459 48.6364C3.17369 48.6384 3.53959 48.5696 3.88129 48.4339C4.223 48.2982 4.53379 48.0982 4.79585 47.8455L12.6768 40.1545H16.8275V44.0818C16.8275 46.2518 17.714 48.3328 19.2919 49.8672C20.8698 51.4016 23.0098 52.2636 25.2413 52.2636H44.6491L51.296 58.7545C51.558 59.0073 51.8688 59.2073 52.2105 59.343C52.5522 59.4787 52.9181 59.5475 53.2872 59.5455C53.6551 59.5547 54.0201 59.48 54.353 59.3273C54.8651 59.1227 55.3036 58.7752 55.613 58.3287C55.9224 57.8822 56.089 57.3566 56.0918 56.8182V29.5455C56.0918 27.3755 55.2054 25.2944 53.6275 23.76C52.0496 22.2256 49.9095 21.3636 47.678 21.3636ZM16.8275 29.5455V34.7H11.5269C11.1578 34.6979 10.7919 34.7667 10.4502 34.9024C10.1085 35.0382 9.79767 35.2381 9.53561 35.4909L5.60918 39.3364V13.1818C5.60918 12.4585 5.90466 11.7648 6.43063 11.2533C6.95659 10.7419 7.66995 10.4545 8.41377 10.4545H36.4597C37.2035 10.4545 37.9169 10.7419 38.4428 11.2533C38.9688 11.7648 39.2643 12.4585 39.2643 13.1818V21.3636H25.2413C23.0098 21.3636 20.8698 22.2256 19.2919 23.76C17.714 25.2944 16.8275 27.3755 16.8275 29.5455ZM50.4826 50.2455L47.678 47.5182C47.4183 47.2605 47.1085 47.0555 46.7667 46.915C46.4249 46.7746 46.0579 46.7015 45.6868 46.7H25.2413C24.4975 46.7 23.7841 46.4127 23.2582 45.9012C22.7322 45.3897 22.4367 44.696 22.4367 43.9727V29.5455C22.4367 28.8221 22.7322 28.1284 23.2582 27.617C23.7841 27.1055 24.4975 26.8182 25.2413 26.8182H47.678C48.4219 26.8182 49.1352 27.1055 49.6612 27.617C50.1872 28.1284 50.4826 28.8221 50.4826 29.5455V50.2455Z" fill="#3F3E3E"/>
</svg>
