<svg width="78" height="64" viewBox="0 0 78 64" fill="none" xmlns="http://www.w3.org/2000/svg">
<path opacity="0.5" d="M78 32C78 49.6731 63.6731 64 46 64C28.3269 64 14 49.6731 14 32C14 14.3269 28.3269 0 46 0C63.6731 0 78 14.3269 78 32Z" fill="#D79847"/>
<path d="M31.6919 32.7818C33.1883 31.5222 34.3886 29.9642 35.2113 28.2137C36.0339 26.4632 36.4597 24.561 36.4597 22.6364C36.4597 19.0198 34.9823 15.5513 32.3524 12.994C29.7226 10.4367 26.1558 9 22.4367 9C18.7176 9 15.1508 10.4367 12.521 12.994C9.89118 15.5513 8.41377 19.0198 8.41377 22.6364C8.41375 24.561 8.83951 26.4632 9.66217 28.2137C10.4848 29.9642 11.6851 31.5222 13.1816 32.7818C9.25554 34.5106 5.9246 37.3024 3.58702 40.8233C1.24943 44.3443 0.00412795 48.4454 0 52.6364C0 53.3597 0.295483 54.0534 0.821445 54.5648C1.34741 55.0763 2.06077 55.3636 2.80459 55.3636C3.54841 55.3636 4.26177 55.0763 4.78774 54.5648C5.3137 54.0534 5.60918 53.3597 5.60918 52.6364C5.60918 48.2965 7.38208 44.1343 10.5379 41.0655C13.6936 37.9967 17.9738 36.2727 22.4367 36.2727C26.8997 36.2727 31.1798 37.9967 34.3356 41.0655C37.4914 44.1343 39.2643 48.2965 39.2643 52.6364C39.2643 53.3597 39.5597 54.0534 40.0857 54.5648C40.6117 55.0763 41.325 55.3636 42.0689 55.3636C42.8127 55.3636 43.526 55.0763 44.052 54.5648C44.578 54.0534 44.8734 53.3597 44.8734 52.6364C44.8693 48.4454 43.624 44.3443 41.2864 40.8233C38.9488 37.3024 35.6179 34.5106 31.6919 32.7818V32.7818ZM22.4367 30.8182C20.7726 30.8182 19.1459 30.3383 17.7623 29.4393C16.3786 28.5403 15.3002 27.2624 14.6634 25.7674C14.0266 24.2724 13.86 22.6273 14.1846 21.0402C14.5093 19.4531 15.3106 17.9952 16.4873 16.8509C17.664 15.7067 19.1632 14.9275 20.7953 14.6118C22.4274 14.2961 24.1191 14.4581 25.6565 15.0774C27.1939 15.6966 28.508 16.7453 29.4325 18.0908C30.357 19.4363 30.8505 21.0182 30.8505 22.6364C30.8505 24.8063 29.964 26.8874 28.3862 28.4218C26.8083 29.9562 24.6682 30.8182 22.4367 30.8182ZM49.7534 31.6909C51.5483 29.7254 52.7207 27.2974 53.1296 24.6991C53.5385 22.1008 53.1664 19.4429 52.0581 17.0455C50.9499 14.648 49.1527 12.6131 46.8829 11.1857C44.613 9.75832 41.9673 8.9993 39.2643 9C38.5204 9 37.8071 9.28734 37.2811 9.7988C36.7552 10.3103 36.4597 11.004 36.4597 11.7273C36.4597 12.4506 36.7552 13.1443 37.2811 13.6557C37.8071 14.1672 38.5204 14.4545 39.2643 14.4545C41.4957 14.4545 43.6358 15.3166 45.2137 16.8509C46.7916 18.3853 47.678 20.4664 47.678 22.6364C47.6741 24.0688 47.2834 25.4752 46.5452 26.7148C45.8069 27.9544 44.7469 28.9838 43.4712 29.7C43.0553 29.9332 42.708 30.2664 42.4625 30.6675C42.217 31.0686 42.0814 31.5243 42.0689 31.9909C42.0571 32.4539 42.1668 32.9122 42.3876 33.3225C42.6084 33.7329 42.9331 34.0818 43.3309 34.3364L44.4247 35.0455L44.7893 35.2364C48.1699 36.7956 51.022 39.2618 53.0095 42.3445C54.997 45.4272 56.0372 48.998 56.0077 52.6364C56.0077 53.3597 56.3032 54.0534 56.8291 54.5648C57.3551 55.0763 58.0684 55.3636 58.8123 55.3636C59.5561 55.3636 60.2694 55.0763 60.7954 54.5648C61.3214 54.0534 61.6168 53.3597 61.6168 52.6364C61.6398 48.4512 60.5618 44.3298 58.4854 40.6638C56.409 36.9978 53.4032 33.909 49.7534 31.6909V31.6909Z" fill="#3F3E3E"/>
</svg>
