<svg width="82" height="66" viewBox="0 0 82 66" fill="none" xmlns="http://www.w3.org/2000/svg">
<path opacity="0.5" d="M81.4404 32.8182C81.4404 50.3909 66.7911 64.6364 48.7202 64.6364C30.6493 64.6364 16 50.3909 16 32.8182C16 15.2455 30.6493 1 48.7202 1C66.7911 1 81.4404 15.2455 81.4404 32.8182Z" fill="#D79847"/>
<path d="M34.4966 33.3272C35.993 32.0676 37.1933 30.5096 38.016 28.7591C38.8386 27.0086 39.2644 25.1064 39.2644 23.1818C39.2644 19.5652 37.7869 16.0967 35.1571 13.5394C32.5273 10.9821 28.9605 9.54541 25.2414 9.54541C21.5223 9.54541 17.9555 10.9821 15.3257 13.5394C12.6959 16.0967 11.2185 19.5652 11.2185 23.1818C11.2184 25.1064 11.6442 27.0086 12.4669 28.7591C13.2895 30.5096 14.4898 32.0676 15.9863 33.3272C12.0602 35.056 8.72929 37.8478 6.3917 41.3687C4.05412 44.8897 2.80882 48.9908 2.80469 53.1818C2.80469 53.9051 3.10017 54.5988 3.62613 55.1102C4.1521 55.6217 4.86545 55.909 5.60928 55.909C6.3531 55.909 7.06646 55.6217 7.59242 55.1102C8.11839 54.5988 8.41387 53.9051 8.41387 53.1818C8.41387 48.8419 10.1868 44.6797 13.3425 41.6109C16.4983 38.5422 20.7785 36.8181 25.2414 36.8181C29.7044 36.8181 33.9845 38.5422 37.1403 41.6109C40.2961 44.6797 42.069 48.8419 42.069 53.1818C42.069 53.9051 42.3644 54.5988 42.8904 55.1102C43.4164 55.6217 44.1297 55.909 44.8735 55.909C45.6174 55.909 46.3307 55.6217 46.8567 55.1102C47.3827 54.5988 47.6781 53.9051 47.6781 53.1818C47.674 48.9908 46.4287 44.8897 44.0911 41.3687C41.7535 37.8478 38.4226 35.056 34.4966 33.3272ZM25.2414 31.3636C23.5773 31.3636 21.9506 30.8837 20.567 29.9847C19.1833 29.0857 18.1049 27.8078 17.4681 26.3128C16.8313 24.8178 16.6647 23.1727 16.9893 21.5856C17.314 19.9985 18.1153 18.5406 19.292 17.3964C20.4687 16.2521 21.9679 15.4729 23.6 15.1572C25.2321 14.8415 26.9238 15.0035 28.4612 15.6228C29.9986 16.242 31.3127 17.2907 32.2372 18.6362C33.1617 19.9817 33.6552 21.5636 33.6552 23.1818C33.6552 25.3517 32.7687 27.4328 31.1908 28.9672C29.613 30.5016 27.4729 31.3636 25.2414 31.3636ZM52.5581 32.2363C54.353 30.2709 55.5254 27.8428 55.9343 25.2445C56.3432 22.6462 55.9711 19.9883 54.8628 17.5909C53.7546 15.1934 51.9574 13.1585 49.6875 11.7311C47.4177 10.3037 44.772 9.54471 42.069 9.54541C41.3251 9.54541 40.6118 9.83275 40.0858 10.3442C39.5598 10.8557 39.2644 11.5494 39.2644 12.2727C39.2644 12.996 39.5598 13.6897 40.0858 14.2012C40.6118 14.7126 41.3251 15 42.069 15C44.3004 15 46.4405 15.862 48.0184 17.3964C49.5963 18.9307 50.4827 21.0118 50.4827 23.1818C50.4788 24.6142 50.0881 26.0206 49.3498 27.2602C48.6116 28.4998 47.5516 29.5292 46.2758 30.2454C45.86 30.4786 45.5127 30.8118 45.2672 31.2129C45.0217 31.614 44.8861 32.0697 44.8735 32.5363C44.8618 32.9993 44.9715 33.4576 45.1923 33.8679C45.4131 34.2783 45.7378 34.6272 46.1356 34.8818L47.2294 35.5909L47.594 35.7818C50.9746 37.341 53.8267 39.8072 55.8142 42.8899C57.8017 45.9726 58.8419 49.5434 58.8124 53.1818C58.8124 53.9051 59.1078 54.5988 59.6338 55.1102C60.1598 55.6217 60.8731 55.909 61.6169 55.909C62.3608 55.909 63.0741 55.6217 63.6001 55.1102C64.1261 54.5988 64.4215 53.9051 64.4215 53.1818C64.4445 48.9966 63.3665 44.8752 61.2901 41.2092C59.2137 37.5432 56.2079 34.4544 52.5581 32.2363Z" fill="#3F3E3E"/>
</svg>
