<svg width="76" height="64" viewBox="0 0 76 64" fill="none" xmlns="http://www.w3.org/2000/svg">
<path opacity="0.5" d="M75.4404 31.8182C75.4404 49.3909 60.7911 63.6364 42.7202 63.6364C24.6493 63.6364 10 49.3909 10 31.8182C10 14.2455 24.6493 0 42.7202 0C60.7911 0 75.4404 14.2455 75.4404 31.8182Z" fill="#D79847"/>
<path d="M34.6647 38.3545C32.7899 39.8245 30.4542 40.6261 28.0459 40.6261C25.6376 40.6261 23.3019 39.8245 21.4271 38.3545C20.8543 37.8916 20.1159 37.6689 19.3743 37.7354C18.6327 37.8019 17.9487 38.1521 17.4726 38.7091C16.9966 39.266 16.7675 39.9841 16.8359 40.7052C16.9043 41.4264 17.2645 42.0916 17.8372 42.5545C20.7016 44.8798 24.3146 46.1536 28.0459 46.1536C31.7773 46.1536 35.3902 44.8798 38.2546 42.5545C38.8274 42.0916 39.1875 41.4264 39.2559 40.7052C39.3243 39.9841 39.0953 39.266 38.6192 38.7091C38.3835 38.4333 38.0942 38.2054 37.7679 38.0383C37.4416 37.8713 37.0847 37.7683 36.7175 37.7354C35.9759 37.6689 35.2375 37.8916 34.6647 38.3545ZM20.2211 28.2909C20.7466 28.7989 21.4574 29.084 22.1983 29.084C22.9393 29.084 23.6501 28.7989 24.1756 28.2909C24.6979 27.7799 24.9911 27.0887 24.9911 26.3682C24.9911 25.6477 24.6979 24.9564 24.1756 24.4455C22.5706 22.9645 20.4424 22.1389 18.2299 22.1389C16.0173 22.1389 13.8891 22.9645 12.2841 24.4455C11.9905 24.6899 11.7521 24.9908 11.5837 25.3292C11.4154 25.6675 11.3208 26.0361 11.3059 26.4117C11.291 26.7873 11.356 27.1618 11.497 27.5118C11.638 27.8618 11.8519 28.1796 12.1252 28.4454C12.3986 28.7112 12.7254 28.9192 13.0853 29.0563C13.4452 29.1934 13.8304 29.2567 14.2166 29.2422C14.6029 29.2277 14.9819 29.1357 15.3298 28.972C15.6778 28.8083 15.9872 28.5764 16.2386 28.2909C16.4993 28.0353 16.8095 27.8324 17.1513 27.6939C17.493 27.5555 17.8596 27.4842 18.2299 27.4842C18.6001 27.4842 18.9667 27.5555 19.3084 27.6939C19.6502 27.8324 19.9604 28.0353 20.2211 28.2909ZM43.8077 24.4455C42.2027 22.9645 40.0745 22.1389 37.862 22.1389C35.6494 22.1389 33.5213 22.9645 31.9163 24.4455C31.4568 24.9672 31.2167 25.6383 31.244 26.3247C31.2712 27.0111 31.5638 27.6622 32.0633 28.1479C32.5628 28.6336 33.2324 28.9182 33.9382 28.9447C34.6441 28.9712 35.3342 28.7377 35.8707 28.2909C36.1314 28.0353 36.4416 27.8324 36.7834 27.6939C37.1252 27.5555 37.4917 27.4842 37.862 27.4842C38.2322 27.4842 38.5988 27.5555 38.9406 27.6939C39.2823 27.8324 39.5925 28.0353 39.8532 28.2909C40.3787 28.7989 41.0895 29.084 41.8305 29.084C42.5714 29.084 43.2822 28.7989 43.8077 28.2909C44.3301 27.7799 44.6233 27.0887 44.6233 26.3682C44.6233 25.6477 44.3301 24.9564 43.8077 24.4455ZM28.0459 5C22.499 5 17.0766 6.59952 12.4644 9.59628C7.85232 12.593 4.25761 16.8525 2.13488 21.8359C0.012152 26.8193 -0.543251 32.303 0.538907 37.5934C1.62106 42.8838 4.29218 47.7433 8.21447 51.5575C12.1368 55.3716 17.1341 57.9691 22.5744 59.0214C28.0148 60.0737 33.6539 59.5337 38.7786 57.4694C43.9033 55.4052 48.2835 51.9096 51.3652 47.4246C54.447 42.9397 56.0918 37.6668 56.0918 32.2727C56.0918 28.6912 55.3664 25.1448 53.957 21.8359C52.5475 18.527 50.4817 15.5205 47.8774 12.988C45.2731 10.4555 42.1813 8.4466 38.7786 7.07601C35.3759 5.70543 31.729 5 28.0459 5ZM28.0459 54.0909C23.6084 54.0909 19.2704 52.8113 15.5807 50.4139C11.891 48.0165 9.01527 44.6089 7.31709 40.6222C5.61891 36.6354 5.17458 32.2485 6.04031 28.0162C6.90604 23.7839 9.04293 19.8963 12.1808 16.8449C15.3186 13.7936 19.3164 11.7156 23.6687 10.8738C28.021 10.0319 32.5323 10.464 36.6321 12.1154C40.7319 13.7667 44.236 16.5632 46.7014 20.1512C49.1667 23.7392 50.4826 27.9575 50.4826 32.2727C50.4826 38.0593 48.1188 43.6088 43.9111 47.7005C39.7034 51.7922 33.9965 54.0909 28.0459 54.0909Z" fill="#3F3E3E"/>
</svg>
