<svg width="77" height="66" viewBox="0 0 77 66" fill="none" xmlns="http://www.w3.org/2000/svg">
<path opacity="0.5" d="M76.4404 32.7272C76.4404 50.2999 61.7911 64.5454 43.7202 64.5454C25.6493 64.5454 11 50.2999 11 32.7272C11 15.1545 25.6493 0.909058 43.7202 0.909058C61.7911 0.909058 76.4404 15.1545 76.4404 32.7272Z" fill="#D79847"/>
<path d="M40.2741 38.8091C38.3993 40.279 36.0636 41.0806 33.6553 41.0806C31.247 41.0806 28.9113 40.279 27.0365 38.8091C26.4637 38.3462 25.7253 38.1235 24.9837 38.19C24.2421 38.2565 23.558 38.6067 23.082 39.1637C22.6059 39.7206 22.3769 40.4387 22.4453 41.1598C22.5137 41.881 22.8738 42.5462 23.4466 43.0091C26.311 45.3344 29.924 46.6081 33.6553 46.6081C37.3866 46.6081 40.9996 45.3344 43.864 43.0091C44.4367 42.5462 44.7969 41.881 44.8653 41.1598C44.9337 40.4387 44.7046 39.7206 44.2286 39.1637C43.9929 38.8879 43.7036 38.66 43.3773 38.4929C43.051 38.3258 42.6941 38.2229 42.3269 38.19C41.5853 38.1235 40.8469 38.3462 40.2741 38.8091ZM25.8305 28.7455C26.356 29.2535 27.0668 29.5386 27.8077 29.5386C28.5487 29.5386 29.2595 29.2535 29.785 28.7455C30.3073 28.2345 30.6005 27.5433 30.6005 26.8228C30.6005 26.1023 30.3073 25.411 29.785 24.9C28.18 23.4191 26.0518 22.5935 23.8392 22.5935C21.6267 22.5935 19.4985 23.4191 17.8935 24.9C17.5999 25.1445 17.3615 25.4454 17.1931 25.7838C17.0248 26.1221 16.9302 26.4907 16.9153 26.8663C16.9003 27.2419 16.9654 27.6164 17.1064 27.9664C17.2474 28.3164 17.4613 28.6342 17.7346 28.9C18.0079 29.1658 18.3348 29.3738 18.6947 29.5109C19.0546 29.648 19.4398 29.7113 19.826 29.6968C20.2123 29.6823 20.5912 29.5903 20.9392 29.4266C21.2871 29.2629 21.5965 29.031 21.848 28.7455C22.1087 28.4899 22.4189 28.287 22.7606 28.1485C23.1024 28.0101 23.469 27.9388 23.8392 27.9388C24.2095 27.9388 24.576 28.0101 24.9178 28.1485C25.2596 28.287 25.5698 28.4899 25.8305 28.7455ZM49.4171 24.9C47.8121 23.4191 45.6839 22.5935 43.4714 22.5935C41.2588 22.5935 39.1306 23.4191 37.5256 24.9C37.0662 25.4218 36.8261 26.0929 36.8533 26.7793C36.8806 27.4657 37.1732 28.1168 37.6727 28.6025C38.1722 29.0882 38.8417 29.3727 39.5476 29.3993C40.2534 29.4258 40.9436 29.1923 41.4801 28.7455C41.7408 28.4899 42.051 28.287 42.3928 28.1485C42.7345 28.0101 43.1011 27.9388 43.4714 27.9388C43.8416 27.9388 44.2082 28.0101 44.5499 28.1485C44.8917 28.287 45.2019 28.4899 45.4626 28.7455C45.9881 29.2535 46.6989 29.5386 47.4399 29.5386C48.1808 29.5386 48.8916 29.2535 49.4171 28.7455C49.9395 28.2345 50.2326 27.5433 50.2326 26.8228C50.2326 26.1023 49.9395 25.411 49.4171 24.9ZM33.6553 5.45459C28.1083 5.45459 22.6859 7.05411 18.0738 10.0509C13.4617 13.0476 9.86698 17.3071 7.74426 22.2905C5.62153 27.2739 5.06612 32.7576 6.14828 38.048C7.23044 43.3383 9.90155 48.1979 13.8238 52.012C17.7461 55.8262 22.7434 58.4237 28.1838 59.476C33.6242 60.5283 39.2633 59.9882 44.388 57.924C49.5127 55.8598 53.8929 52.3642 56.9746 47.8792C60.0563 43.3943 61.7012 38.1213 61.7012 32.7273C61.7012 29.1458 60.9758 25.5994 59.5663 22.2905C58.1569 18.9816 56.091 15.9751 53.4867 13.4426C50.8824 10.9101 47.7907 8.90119 44.388 7.5306C40.9853 6.16002 37.3383 5.45459 33.6553 5.45459ZM33.6553 54.5455C29.2177 54.5455 24.8798 53.2659 21.1901 50.8685C17.5004 48.4711 14.6246 45.0635 12.9265 41.0768C11.2283 37.09 10.784 32.7031 11.6497 28.4708C12.5154 24.2385 14.6523 20.3509 17.7901 17.2995C20.928 14.2482 24.9258 12.1702 29.2781 11.3284C33.6304 10.4865 38.1417 10.9186 42.2415 12.5699C46.3412 14.2213 49.8454 17.0178 52.3107 20.6058C54.7761 24.1938 56.092 28.4121 56.092 32.7273C56.092 38.5139 53.7282 44.0634 49.5205 48.1551C45.3128 52.2468 39.6059 54.5455 33.6553 54.5455Z" fill="#3F3E3E"/>
</svg>
