<svg width="137" height="43" viewBox="0 0 137 43" fill="none" xmlns="http://www.w3.org/2000/svg">
<path d="M7.584 33.168C6.352 33.168 5.248 32.968 4.272 32.568C3.296 32.168 2.512 31.576 1.92 30.792C1.344 30.008 1.04 29.064 1.008 27.96H5.376C5.44 28.584 5.656 29.064 6.024 29.4C6.392 29.72 6.872 29.88 7.464 29.88C8.072 29.88 8.552 29.744 8.904 29.472C9.256 29.184 9.432 28.792 9.432 28.296C9.432 27.88 9.288 27.536 9 27.264C8.728 26.992 8.384 26.768 7.968 26.592C7.568 26.416 6.992 26.216 6.24 25.992C5.152 25.656 4.264 25.32 3.576 24.984C2.888 24.648 2.296 24.152 1.8 23.496C1.304 22.84 1.056 21.984 1.056 20.928C1.056 19.36 1.624 18.136 2.76 17.256C3.896 16.36 5.376 15.912 7.2 15.912C9.056 15.912 10.552 16.36 11.688 17.256C12.824 18.136 13.432 19.368 13.512 20.952H9.072C9.04 20.408 8.84 19.984 8.472 19.68C8.104 19.36 7.632 19.2 7.056 19.2C6.56 19.2 6.16 19.336 5.856 19.608C5.552 19.864 5.4 20.24 5.4 20.736C5.4 21.28 5.656 21.704 6.168 22.008C6.68 22.312 7.48 22.64 8.568 22.992C9.656 23.36 10.536 23.712 11.208 24.048C11.896 24.384 12.488 24.872 12.984 25.512C13.48 26.152 13.728 26.976 13.728 27.984C13.728 28.944 13.48 29.816 12.984 30.6C12.504 31.384 11.8 32.008 10.872 32.472C9.944 32.936 8.848 33.168 7.584 33.168ZM39.4376 16.152L35.0456 33H30.0776L27.3896 21.912L24.6056 33H19.6376L15.3656 16.152H19.7576L22.1816 28.416L25.1816 16.152H29.6936L32.5736 28.416L35.0216 16.152H39.4376ZM51.9838 30.024H45.6958L44.6878 33H40.3918L46.4878 16.152H51.2398L57.3358 33H52.9918L51.9838 30.024ZM50.9278 26.856L48.8398 20.688L46.7758 26.856H50.9278Z" fill="#F1EBDD"/>
<path d="M80.5686 29.9616H85.9446V33.1296H76.4646V16.2816H80.5686V29.9616ZM98.3901 30.1536H92.1021L91.0941 33.1296H86.7981L92.8941 16.2816H97.6461L103.742 33.1296H99.3981L98.3901 30.1536ZM97.3341 26.9856L95.2461 20.8176L93.1821 26.9856H97.3341ZM120.669 33.1296H116.565L109.701 22.7376V33.1296H105.597V16.2816H109.701L116.565 26.7216V16.2816H120.669V33.1296ZM135.764 16.2816V19.5696H131.3V33.1296H127.196V19.5696H122.732V16.2816H135.764Z" fill="#F1EBDD"/>
<path d="M57.0203 22.3387C57.0203 23.4773 57.2817 24.5227 57.8043 25.4747C58.327 26.408 59.1297 27.164 60.2123 27.7427C61.295 28.3213 62.639 28.6107 64.2443 28.6107H67.2123V35.6667H72.0003V16.0107H64.2443C62.6763 16.0107 61.351 16.2813 60.2683 16.8227C59.1857 17.364 58.3737 18.1107 57.8323 19.0627C57.291 20.0147 57.0203 21.1067 57.0203 22.3387ZM64.6083 24.8027C63.6937 24.8027 63.0123 24.588 62.5643 24.1587C62.1163 23.7293 61.8923 23.1227 61.8923 22.3387C61.8923 21.5547 62.1163 20.948 62.5643 20.5187C63.0123 20.0893 63.6937 19.8747 64.6083 19.8747H67.2123V24.8027H64.6083Z" fill="black" fill-opacity="0.75"/>
<path d="M81.9797 7.672C81.9797 8.81067 81.7183 9.856 81.1957 10.808C80.673 11.7413 79.8703 12.4973 78.7877 13.076C77.705 13.6547 76.361 13.944 74.7557 13.944H71.7877V21H66.9997V1.344H74.7557C76.3237 1.344 77.649 1.61467 78.7317 2.156C79.8143 2.69733 80.6263 3.444 81.1677 4.396C81.709 5.348 81.9797 6.44 81.9797 7.672ZM74.3917 10.136C75.3063 10.136 75.9877 9.92133 76.4357 9.492C76.8837 9.06267 77.1077 8.456 77.1077 7.672C77.1077 6.888 76.8837 6.28133 76.4357 5.852C75.9877 5.42267 75.3063 5.208 74.3917 5.208H71.7877V10.136H74.3917Z" fill="black" fill-opacity="0.75"/>
</svg>
