<svg width="400" height="88" viewBox="0 0 400 88" fill="none" xmlns="http://www.w3.org/2000/svg">
<path d="M22.752 87.8013C19.056 87.8013 15.744 87.2013 12.816 86.0013C9.888 84.8013 7.536 83.0253 5.76 80.6733C4.032 78.3213 3.12 75.4893 3.024 72.1773H16.128C16.32 74.0493 16.968 75.4893 18.072 76.4973C19.176 77.4573 20.616 77.9373 22.392 77.9373C24.216 77.9373 25.656 77.5293 26.712 76.7133C27.768 75.8493 28.296 74.6733 28.296 73.1853C28.296 71.9373 27.864 70.9053 27 70.0893C26.184 69.2733 25.152 68.6013 23.904 68.0733C22.704 67.5453 20.976 66.9453 18.72 66.2733C15.456 65.2653 12.792 64.2573 10.728 63.2493C8.664 62.2413 6.888 60.7533 5.4 58.7853C3.912 56.8173 3.168 54.2493 3.168 51.0813C3.168 46.3773 4.872 42.7053 8.28 40.0653C11.688 37.3773 16.128 36.0333 21.6 36.0333C27.168 36.0333 31.656 37.3773 35.064 40.0653C38.472 42.7053 40.296 46.4013 40.536 51.1533H27.216C27.12 49.5213 26.52 48.2493 25.416 47.3373C24.312 46.3773 22.896 45.8973 21.168 45.8973C19.68 45.8973 18.48 46.3053 17.568 47.1213C16.656 47.8893 16.2 49.0173 16.2 50.5053C16.2 52.1373 16.968 53.4093 18.504 54.3213C20.04 55.2333 22.44 56.2173 25.704 57.2733C28.968 58.3773 31.608 59.4333 33.624 60.4413C35.688 61.4493 37.464 62.9133 38.952 64.8333C40.44 66.7533 41.184 69.2253 41.184 72.2493C41.184 75.1293 40.44 77.7453 38.952 80.0973C37.512 82.4493 35.4 84.3213 32.616 85.7133C29.832 87.1053 26.544 87.8013 22.752 87.8013ZM118.313 36.7533L105.137 87.2973H90.2329L82.1689 54.0333L73.8169 87.2973H58.9129L46.0969 36.7533H59.2729L66.5449 73.5453L75.5449 36.7533H89.0809L97.7209 73.5453L105.065 36.7533H118.313ZM155.951 78.3693H137.087L134.063 87.2973H121.175L139.463 36.7533H153.719L172.007 87.2973H158.975L155.951 78.3693ZM152.783 68.8653L146.519 50.3613L140.327 68.8653H152.783Z" fill="#F1EBDD"/>
<path d="M228.776 77.8744H244.904V87.3784H216.464V36.8344H228.776V77.8744ZM282.241 78.4504H263.377L260.353 87.3784H247.465L265.753 36.8344H280.009L298.297 87.3784H285.265L282.241 78.4504ZM279.073 68.9464L272.809 50.4424L266.617 68.9464H279.073ZM349.078 87.3784H336.766L316.174 56.2024V87.3784H303.862V36.8344H316.174L336.766 68.1544V36.8344H349.078V87.3784ZM394.363 36.8344V46.6984H380.971V87.3784H368.659V46.6984H355.267V36.8344H394.363Z" fill="#F1EBDD"/>
<path d="M165.481 52.674C165.481 55.602 166.153 58.29 167.497 60.738C168.841 63.138 170.905 65.082 173.689 66.57C176.473 68.058 179.929 68.802 184.057 68.802H191.689V86.946H204.001V36.402H184.057C180.025 36.402 176.617 37.098 173.833 38.49C171.049 39.8819 168.961 41.8019 167.569 44.2499C166.177 46.6979 165.481 49.506 165.481 52.674ZM184.993 59.01C182.641 59.01 180.889 58.458 179.737 57.354C178.585 56.25 178.009 54.69 178.009 52.674C178.009 50.658 178.585 49.098 179.737 47.994C180.889 46.89 182.641 46.338 184.993 46.338H191.689V59.01H184.993Z" fill="white"/>
<path d="M230.519 16.728C230.519 19.656 229.847 22.344 228.503 24.792C227.159 27.192 225.095 29.136 222.311 30.624C219.527 32.112 216.071 32.856 211.943 32.856H204.311V51H191.999V0.455998H211.943C215.975 0.455998 219.383 1.152 222.167 2.544C224.951 3.936 227.039 5.856 228.431 8.304C229.823 10.752 230.519 13.56 230.519 16.728ZM211.007 23.064C213.359 23.064 215.111 22.512 216.263 21.408C217.415 20.304 217.991 18.744 217.991 16.728C217.991 14.712 217.415 13.152 216.263 12.048C215.111 10.944 213.359 10.392 211.007 10.392H204.311V23.064H211.007Z" fill="white"/>
</svg>
