<svg width="45" height="58" viewBox="0 0 45 58" fill="none" xmlns="http://www.w3.org/2000/svg">
<circle cx="24.7173" cy="20.2453" r="19.1509" fill="#346329" fill-opacity="0.25"/>
<path d="M13.183 9.6C11.1563 9.6 9.42298 9.94667 7.98298 10.64C6.54298 11.3067 5.43631 12.28 4.66298 13.56C3.86298 14.8133 3.46298 16.3333 3.46298 18.12C3.46298 19.9067 3.86298 21.44 4.66298 22.72C5.43631 23.9733 6.54298 24.9467 7.98298 25.64C9.42298 26.3067 11.1563 26.64 13.183 26.64H18.743V36H24.263V9.6H13.183ZM14.023 22.28C12.3696 22.28 11.1296 21.9333 10.303 21.24C9.47631 20.52 9.06298 19.48 9.06298 18.12C9.06298 16.7333 9.47631 15.6933 10.303 15C11.1296 14.3067 12.3696 13.96 14.023 13.96H18.743V22.28H14.023Z" fill="black"/>
<path d="M18.6649 21.6377V48.0377H24.1849V21.6377H18.6649Z" fill="black"/>
<path d="M34.6083 21.6377C36.635 21.6377 38.3683 21.9844 39.8083 22.6777C41.2483 23.3444 42.355 24.3177 43.1283 25.5977C43.9283 26.8511 44.3283 28.3711 44.3283 30.1577C44.3283 31.9444 43.9283 33.4777 43.1283 34.7577C42.355 36.0111 41.2483 36.9844 39.8083 37.6777C38.3683 38.3444 36.635 38.6777 34.6083 38.6777H29.0483V48.0377H23.5283V21.6377H34.6083ZM33.7683 34.3177C35.4216 34.3177 36.6616 33.9711 37.4883 33.2777C38.315 32.5577 38.7283 31.5177 38.7283 30.1577C38.7283 28.7711 38.315 27.7311 37.4883 27.0377C36.6616 26.3444 35.4216 25.9977 33.7683 25.9977H29.0483V34.3177H33.7683Z" fill="black"/>
</svg>
